<svg width="16" height="16" viewBox="0 0 16 16" fill="none" xmlns="http://www.w3.org/2000/svg">
<g id="Star">
<path id="Vector" d="M14.3067 7.25465L11.6169 9.49219L12.4678 12.9497C12.507 13.0946 12.5123 13.2466 12.4835 13.3939C12.4548 13.5412 12.3926 13.68 12.3018 13.7995C12.211 13.9191 12.094 14.0162 11.9597 14.0834C11.8255 14.1507 11.6777 14.1863 11.5276 14.1875C11.3437 14.1866 11.164 14.1329 11.0099 14.0327L8.00465 12.1344H7.99275L5.20177 13.9018C5.02147 14.0156 4.81134 14.0729 4.59825 14.0666C4.38517 14.0602 4.17883 13.9904 4.00564 13.8661C3.82721 13.7359 3.69207 13.5551 3.61778 13.3471C3.54349 13.139 3.53349 12.9135 3.58907 12.6997L4.39245 9.5398L1.69073 7.25465C1.53745 7.12657 1.42605 6.95551 1.3709 6.76353C1.31574 6.57155 1.31936 6.36744 1.38129 6.17754C1.44159 5.9905 1.55663 5.82585 1.71152 5.70491C1.86642 5.58396 2.05404 5.51228 2.25012 5.49913L5.76116 5.273L7.09416 1.95239C7.16565 1.77053 7.29008 1.61432 7.45135 1.50398C7.61262 1.39364 7.80329 1.33425 7.9987 1.3335C8.1941 1.33425 8.38478 1.39364 8.54605 1.50398C8.70731 1.61432 8.83175 1.77053 8.90324 1.95239L10.2124 5.25514L13.7473 5.49913C13.9436 5.51148 14.1316 5.58286 14.2866 5.70392C14.4417 5.82498 14.5565 5.99007 14.6161 6.17754C14.678 6.36744 14.6817 6.57155 14.6265 6.76353C14.5713 6.95551 14.4599 7.12657 14.3067 7.25465Z" fill="#D26312"/>
</g>
</svg>
