<svg width="14" height="11" viewBox="0 0 14 11" fill="none" xmlns="http://www.w3.org/2000/svg">
<path d="M9.9987 5.49992C10.2176 5.49992 10.4343 5.45681 10.6365 5.37305C10.8387 5.28929 11.0224 5.16653 11.1772 5.01176C11.332 4.857 11.4547 4.67327 11.5385 4.47106C11.6223 4.26885 11.6654 4.05212 11.6654 3.83325C11.6654 3.39122 11.4898 2.9673 11.1772 2.65474C10.8646 2.34218 10.4407 2.16659 9.9987 2.16659C9.55667 2.16659 9.13275 2.34218 8.82019 2.65474C8.50763 2.9673 8.33203 3.39122 8.33203 3.83325C8.33203 4.05212 8.37514 4.26885 8.4589 4.47106C8.54266 4.67327 8.66542 4.857 8.82019 5.01176C9.13275 5.32432 9.55667 5.49992 9.9987 5.49992ZM4.9987 4.83325C5.52913 4.83325 6.03784 4.62254 6.41291 4.24747C6.78798 3.87239 6.9987 3.36368 6.9987 2.83325C6.9987 2.30282 6.78798 1.79411 6.41291 1.41904C6.03784 1.04397 5.52913 0.833252 4.9987 0.833252C4.46827 0.833252 3.95956 1.04397 3.58448 1.41904C3.20941 1.79411 2.9987 2.30282 2.9987 2.83325C2.9987 3.36368 3.20941 3.87239 3.58448 4.24747C3.95956 4.62254 4.46827 4.83325 4.9987 4.83325ZM9.9987 6.83325C8.7787 6.83325 6.33203 7.44659 6.33203 8.66659V10.1666H13.6654V8.66659C13.6654 7.44659 11.2187 6.83325 9.9987 6.83325ZM4.9987 6.16659C3.44536 6.16659 0.332031 6.94659 0.332031 8.49992V10.1666H4.9987V8.66659C4.9987 8.09992 5.2187 7.10659 6.5787 6.35325C5.9987 6.23325 5.4387 6.16659 4.9987 6.16659Z" fill="#D26312"/>
</svg>
