<svg width="14" height="14" viewBox="0 0 14 14" fill="none" xmlns="http://www.w3.org/2000/svg">
<path d="M5.66536 0.5H8.33203C8.68565 0.5 9.02479 0.640476 9.27484 0.890524C9.52489 1.14057 9.66537 1.47971 9.66537 1.83333V3.16667H12.332C12.6857 3.16667 13.0248 3.30714 13.2748 3.55719C13.5249 3.80724 13.6654 4.14638 13.6654 4.5V11.8333C13.6654 12.187 13.5249 12.5261 13.2748 12.7761C13.0248 13.0262 12.6857 13.1667 12.332 13.1667H1.66536C1.31174 13.1667 0.972604 13.0262 0.722555 12.7761C0.472507 12.5261 0.332031 12.187 0.332031 11.8333V4.5C0.332031 3.76 0.925365 3.16667 1.66536 3.16667H4.33203V1.83333C4.33203 1.09333 4.92536 0.5 5.66536 0.5ZM8.33203 3.16667V1.83333H5.66536V3.16667H8.33203Z" fill="#D26312"/>
</svg>
