<svg width="16" height="16" viewBox="0 0 16 16" fill="none" xmlns="http://www.w3.org/2000/svg">
<g id="ph:upload-simple">
<path id="Vector" d="M14 9.49991V12.9999C14 13.2651 13.8946 13.5195 13.7071 13.707C13.5196 13.8945 13.2652 13.9999 13 13.9999H3C2.73478 13.9999 2.48043 13.8945 2.29289 13.707C2.10536 13.5195 2 13.2651 2 12.9999V9.49991C2 9.3673 2.05268 9.24012 2.14645 9.14635C2.24021 9.05258 2.36739 8.99991 2.5 8.99991C2.63261 8.99991 2.75979 9.05258 2.85355 9.14635C2.94732 9.24012 3 9.3673 3 9.49991V12.9999H13V9.49991C13 9.3673 13.0527 9.24012 13.1464 9.14635C13.2402 9.05258 13.3674 8.99991 13.5 8.99991C13.6326 8.99991 13.7598 9.05258 13.8536 9.14635C13.9473 9.24012 14 9.3673 14 9.49991ZM5.85375 5.35366L7.5 3.70678V9.49991C7.5 9.63251 7.55268 9.75969 7.64645 9.85346C7.74021 9.94723 7.86739 9.9999 8 9.9999C8.13261 9.9999 8.25979 9.94723 8.35355 9.85346C8.44732 9.75969 8.5 9.63251 8.5 9.49991V3.70678L10.1462 5.35366C10.2401 5.44748 10.3673 5.50018 10.5 5.50018C10.6327 5.50018 10.7599 5.44748 10.8538 5.35366C10.9476 5.25984 11.0003 5.13259 11.0003 4.99991C11.0003 4.86722 10.9476 4.73998 10.8538 4.64615L8.35375 2.14615C8.30731 2.09967 8.25217 2.06279 8.19147 2.03763C8.13077 2.01246 8.06571 1.99951 8 1.99951C7.93429 1.99951 7.86923 2.01246 7.80853 2.03763C7.74783 2.06279 7.69269 2.09967 7.64625 2.14615L5.14625 4.64615C5.05243 4.73998 4.99972 4.86722 4.99972 4.99991C4.99972 5.13259 5.05243 5.25984 5.14625 5.35366C5.24007 5.44748 5.36732 5.50018 5.5 5.50018C5.63268 5.50018 5.75993 5.44748 5.85375 5.35366Z" fill="black"/>
</g>
</svg>
