<svg width="36" height="36" viewBox="0 0 36 36" fill="none" xmlns="http://www.w3.org/2000/svg">
<path d="M31.5689 19.1938L21.4439 29.3188C21.1269 29.6358 20.6969 29.8139 20.2486 29.8139C19.8003 29.8139 19.3703 29.6358 19.0533 29.3188C18.7363 29.0018 18.5582 28.5718 18.5582 28.1235C18.5582 27.6751 18.7363 27.2452 19.0533 26.9282L26.2969 19.6874H5.625C5.17745 19.6874 4.74822 19.5096 4.43176 19.1931C4.11529 18.8767 3.9375 18.4474 3.9375 17.9999C3.9375 17.5523 4.11529 17.1231 4.43176 16.8066C4.74822 16.4902 5.17745 16.3124 5.625 16.3124H26.2969L19.0561 9.06738C18.7391 8.75036 18.561 8.3204 18.561 7.87207C18.561 7.42374 18.7391 6.99377 19.0561 6.67675C19.3731 6.35974 19.8031 6.18164 20.2514 6.18164C20.6997 6.18164 21.1297 6.35974 21.4467 6.67675L31.5717 16.8018C31.7291 16.9587 31.8539 17.1453 31.9389 17.3506C32.024 17.556 32.0676 17.7761 32.0673 17.9984C32.0671 18.2206 32.0229 18.4406 31.9374 18.6458C31.8518 18.8509 31.7266 19.0372 31.5689 19.1938Z" fill="#D26312"/>
</svg>
