<svg width="64" height="64" viewBox="0 0 64 64" fill="none" xmlns="http://www.w3.org/2000/svg">
<path fill-rule="evenodd" clip-rule="evenodd" d="M55.7833 23.162C56.4775 22.9449 57.2175 23.3258 57.4444 24.0173L57.4427 24.0179C59.2283 29.7112 59.0535 35.8386 56.9461 41.4203C54.8383 47.002 50.9194 51.7155 45.8165 54.8072C40.7144 57.8989 34.7215 59.1898 28.798 58.4738C22.8741 57.7574 17.3623 55.0756 13.1431 50.8569C8.92388 46.6387 6.2416 41.1265 5.52519 35.203C4.80834 29.2791 6.09919 23.2868 9.19043 18.1834C12.2821 13.0805 16.9957 9.1612 22.5774 7.05337C28.1591 4.94507 34.2868 4.76976 39.9798 6.55545C40.3228 6.65556 40.6107 6.88918 40.7794 7.20377C40.948 7.51836 40.9827 7.88768 40.8764 8.22853C40.7696 8.56937 40.5302 8.85282 40.212 9.01523C39.8939 9.1772 39.5241 9.20479 39.1855 9.09132C34.059 7.48234 28.5414 7.63942 23.5146 9.53674C18.4884 11.4342 14.2434 14.9623 11.4593 19.5575C8.67467 24.1521 7.51195 29.5483 8.15672 34.8821C8.80146 40.2159 11.2163 45.1796 15.0155 48.9788C18.8147 52.7784 23.7783 55.1937 29.1121 55.8389C34.4465 56.4838 39.8427 55.3215 44.4379 52.5377C49.0331 49.7534 52.5618 45.5088 54.4595 40.4824C56.3573 35.4552 56.5144 29.9375 54.9058 24.8115C54.698 24.1143 55.0887 23.3792 55.7833 23.162ZM33.4169 22.6072C33.4169 23.3414 32.8215 23.9363 32.0878 23.9363C29.9729 23.9363 27.9446 24.7764 26.4495 26.272C24.954 27.7671 24.1139 29.7953 24.1139 31.9102C24.1139 34.0251 24.954 36.0533 26.4495 37.5484C27.9446 39.0439 29.9729 39.8841 32.0878 39.8841C34.2026 39.8841 36.2309 39.0439 37.726 37.5484C39.2215 36.0533 40.0616 34.0251 40.0616 31.9102C40.0616 31.1764 40.6565 30.5811 41.3907 30.5811C42.1245 30.5811 42.7194 31.1764 42.7194 31.9102C42.7194 34.73 41.5994 37.434 39.6055 39.4279C37.6116 41.4219 34.9075 42.5419 32.0878 42.5419C29.268 42.5419 26.5639 41.4219 24.57 39.4279C22.5761 37.434 21.4561 34.73 21.4561 31.9102C21.4561 29.0904 22.5761 26.3864 24.57 24.3925C26.5639 22.3985 29.268 21.2785 32.0878 21.2785C32.8215 21.2785 33.4169 21.8735 33.4169 22.6072ZM34.6188 14.8178C34.625 14.0614 34.0439 13.4294 33.2897 13.3721C32.8923 13.3374 32.4954 13.3049 32.0878 13.3049C27.1531 13.3049 22.4208 15.265 18.9321 18.7545C15.4426 22.2435 13.4825 26.9758 13.4825 31.9102C13.4825 36.8447 15.4426 41.5772 18.9321 45.066C22.4211 48.5554 27.1533 50.5155 32.0878 50.5155C37.0222 50.5155 41.7547 48.5554 45.2435 45.066C48.733 41.577 50.6931 36.8447 50.6931 31.9102C50.6931 31.4297 50.6637 30.9491 50.605 30.4721C50.5716 30.0988 50.3829 29.7561 50.0848 29.5283C49.7871 29.3 49.4071 29.2079 49.0378 29.2733C48.668 29.3388 48.3432 29.5563 48.1421 29.8727C47.9405 30.1891 47.8809 30.5758 47.9783 30.938L47.9788 30.9431C48.0071 31.2635 48.0353 31.5823 48.0353 31.9102C48.0353 36.1397 46.3551 40.196 43.3644 43.1871C40.3733 46.1777 36.317 47.858 32.0876 47.858C27.8581 47.858 23.8018 46.1777 20.8107 43.1871C17.82 40.196 16.1398 36.1397 16.1398 31.9102C16.1398 27.6808 17.82 23.6245 20.8107 20.6334C23.8018 17.6427 27.8581 15.9625 32.0876 15.9625C32.3885 15.9625 32.6806 15.9874 32.9743 16.0123L33.0585 16.0195L33.3077 16.0417C33.6445 16.0564 33.9733 15.9349 34.2198 15.7049C34.4664 15.4744 34.6101 15.1549 34.6185 14.8176L34.6188 14.8178ZM40.0615 22.0575V17.2918C40.0615 16.9394 40.2017 16.6013 40.4509 16.3521L48.4247 8.37821C48.8048 7.99821 49.3766 7.8843 49.8731 8.09032C50.3697 8.29585 50.6932 8.78043 50.6932 9.31796V13.3049H54.6801C55.2176 13.3049 55.7022 13.6284 55.9078 14.125C56.1138 14.6216 55.9999 15.1934 55.6199 15.5734L47.646 23.5472C47.3969 23.7964 47.0587 23.9366 46.7063 23.9366H41.9406L33.0274 32.8502C32.7792 33.1047 32.4397 33.2489 32.0841 33.2511C31.729 33.2533 31.3873 33.1132 31.1359 32.8622C30.8849 32.6108 30.7448 32.2691 30.747 31.914C30.7492 31.5585 30.8934 31.2189 31.1479 30.9707L40.0615 22.0575ZM48.0354 12.5262L42.7193 17.8423V21.2788H46.1563L51.4723 15.9627H49.3645C49.0116 15.9627 48.6735 15.823 48.4243 15.5738C48.1751 15.3246 48.0354 14.9864 48.0354 14.6336V12.5262Z" fill="#D26312"/>
</svg>
