<svg width="65" height="64" viewBox="0 0 65 64" fill="none" xmlns="http://www.w3.org/2000/svg">
<path d="M16.4176 5.33325C16.1401 5.33375 15.8767 5.47558 15.6961 5.72156L6.01255 18.9023L6.00533 18.9107C5.62928 19.2777 5.55365 19.9185 5.83026 20.3906C5.83281 20.393 5.83536 20.396 5.83748 20.399C5.85108 20.4218 5.86553 20.4441 5.8804 20.4659L5.88762 20.4783V20.4788C5.89017 20.4828 5.8923 20.4873 5.89485 20.4912L31.5787 58.2396C31.5847 58.248 31.5906 58.2564 31.5966 58.2648C31.6097 58.2832 31.6233 58.3015 31.6378 58.3189C31.6459 58.3273 31.6544 58.3358 31.6629 58.3442C31.6735 58.3571 31.6841 58.3695 31.6952 58.3819C31.716 58.4042 31.7381 58.425 31.7606 58.4449C31.7627 58.4464 31.7653 58.4478 31.7674 58.4493C31.7857 58.4642 31.8044 58.4786 31.8235 58.4925C31.8341 58.4994 31.8447 58.5064 31.8558 58.5133C31.8702 58.5237 31.8851 58.5331 31.9004 58.5426C31.9157 58.5515 31.931 58.5599 31.9467 58.5679C31.9573 58.5723 31.9684 58.5763 31.979 58.5803C31.9964 58.5897 32.0138 58.5981 32.0313 58.6055C32.0504 58.6135 32.0695 58.6204 32.0886 58.6269C32.101 58.6298 32.1129 58.6323 32.1248 58.6353C32.1422 58.6398 32.1596 58.6442 32.177 58.6477C32.1864 58.6507 32.1961 58.6536 32.2059 58.6561C32.2684 58.666 32.3321 58.669 32.3954 58.6646H32.3988C32.4188 58.6626 32.4388 58.6596 32.4583 58.6561C32.5093 58.6482 32.5599 58.6358 32.6092 58.6184C32.6304 58.611 32.6516 58.6026 32.6725 58.5931C32.6958 58.5817 32.7188 58.5688 32.7409 58.5555C32.7473 58.5525 32.7532 58.55 32.7592 58.547C32.7613 58.5455 32.7638 58.544 32.7664 58.5426C32.7931 58.5267 32.8191 58.5093 32.8441 58.4905C32.8514 58.485 32.8586 58.4796 32.8658 58.4736C32.8718 58.4682 32.8781 58.4627 32.8841 58.4573C32.9036 58.4414 32.9228 58.4245 32.9414 58.4072C32.9448 58.4027 32.9487 58.3987 32.9521 58.3943C32.9963 58.3506 33.0366 58.302 33.0732 58.2495L58.7723 20.4796C58.9444 20.2415 59.0234 19.9301 58.9894 19.6211C58.9554 19.3122 58.8118 19.0339 58.5938 18.8544L48.9546 5.7346C48.7744 5.48862 48.5109 5.34679 48.2335 5.34629H22.8912L16.4176 5.33325ZM16.8561 7.55501H21.3343L16.4899 18.6638H8.69516L16.8561 7.55501ZM23.4704 7.55501H41.1754L46.0182 18.6638H18.6276L23.4704 7.55501ZM43.3118 7.55501H47.79L55.951 18.6638H48.1541L43.3118 7.55501ZM8.59487 20.8856H16.4716L27.9641 49.352L8.59487 20.8856ZM18.5758 20.8856H46.0709L32.3233 54.9381L18.5758 20.8856ZM48.1768 20.8856H56.0515L36.6833 49.352L48.1768 20.8856Z" fill="#D26312"/>
</svg>
