<svg width="65" height="64" viewBox="0 0 65 64" fill="none" xmlns="http://www.w3.org/2000/svg">
<path d="M59.1389 38.7733C53.1495 27.3275 43.2534 20.4947 32.6665 20.4947C22.0797 20.4947 12.1839 27.3278 6.19423 38.7733C5.93526 39.2677 5.93526 39.8931 6.19423 40.3879C12.1836 51.8333 22.0797 58.6666 32.6665 58.6666C43.2534 58.6666 53.1492 51.8335 59.1389 40.3879C59.3978 39.8936 59.3978 39.2681 59.1389 38.7738V38.7733ZM32.6665 55.6008C23.2335 55.6008 14.3796 49.6304 8.83159 39.5801C14.3797 29.5302 23.2332 23.5594 32.6665 23.5594C42.0999 23.5594 50.9535 29.5297 56.5015 39.5801C50.9534 49.63 42.0999 55.6008 32.6665 55.6008ZM32.6665 26.8922C26.7547 26.8922 21.9446 32.5838 21.9446 39.5813C21.9446 46.5788 26.7543 52.2705 32.6665 52.2705C38.5788 52.2705 43.3885 46.5788 43.3885 39.5813C43.3885 32.5848 38.5788 26.8922 32.6665 26.8922ZM32.6665 49.2021C28.1831 49.2021 24.536 44.8857 24.536 39.5798C24.536 34.274 28.1832 29.9581 32.6665 29.9581C37.1498 29.9581 40.7966 34.2744 40.7966 39.5803C40.7966 44.8862 37.1498 49.2021 32.6665 49.2021ZM31.8239 35.9239C31.8239 37.1556 30.9751 38.1601 29.9343 38.1601C28.8935 38.1601 28.0447 37.1556 28.0447 35.9239C28.0447 34.6921 28.8935 33.6876 29.9343 33.6876C30.9755 33.6881 31.8239 34.6926 31.8239 35.9239ZM18.714 11.4261C19.1929 10.7968 20.0116 10.7459 20.5438 11.3127L24.2251 15.2356C24.7568 15.8024 24.7999 16.7713 24.3209 17.4011C24.0652 17.7374 23.7124 17.9084 23.3576 17.9084C23.0483 17.9084 22.7386 17.7787 22.491 17.5145L18.8097 13.5917C18.278 13.0243 18.2349 12.0549 18.7139 11.4261L18.714 11.4261ZM31.3708 12.6814V6.86621C31.3708 6.01976 31.9508 5.33325 32.6661 5.33325C33.3813 5.33325 33.9614 6.01973 33.9614 6.86621V12.6814C33.9614 13.5278 33.3813 14.2143 32.6661 14.2143C31.9508 14.2143 31.3708 13.5278 31.3708 12.6814ZM41.0113 17.4003C40.5323 16.7709 40.5753 15.801 41.1071 15.2352L44.7884 11.3123C45.3201 10.7455 46.1388 10.7964 46.6178 11.4257C47.0967 12.055 47.0537 13.0249 46.522 13.5908L42.8407 17.5136C42.5935 17.7778 42.283 17.9075 41.9745 17.9075C41.6197 17.9075 41.267 17.737 41.0112 17.4002L41.0113 17.4003Z" fill="#D26312"/>
</svg>
