<svg width="40" height="40" viewBox="0 0 40 40" fill="none" xmlns="http://www.w3.org/2000/svg">
<path d="M20 3.125C16.6624 3.125 13.3998 4.1147 10.6248 5.96895C7.84968 7.8232 5.68677 10.4587 4.40954 13.5422C3.13231 16.6257 2.79813 20.0187 3.44926 23.2921C4.10038 26.5656 5.70757 29.5724 8.06758 31.9324C10.4276 34.2924 13.4344 35.8996 16.7079 36.5508C19.9813 37.2019 23.3743 36.8677 26.4578 35.5905C29.5413 34.3132 32.1768 32.1503 34.0311 29.3752C35.8853 26.6002 36.875 23.3376 36.875 20C36.87 15.526 35.0906 11.2367 31.927 8.07305C28.7634 4.90945 24.474 3.12996 20 3.125ZM21.875 32.9891V24.375H25C25.4973 24.375 25.9742 24.1775 26.3258 23.8258C26.6775 23.4742 26.875 22.9973 26.875 22.5C26.875 22.0027 26.6775 21.5258 26.3258 21.1742C25.9742 20.8225 25.4973 20.625 25 20.625H21.875V17.5C21.875 17.0027 22.0726 16.5258 22.4242 16.1742C22.7758 15.8225 23.2527 15.625 23.75 15.625H26.25C26.7473 15.625 27.2242 15.4275 27.5758 15.0758C27.9275 14.7242 28.125 14.2473 28.125 13.75C28.125 13.2527 27.9275 12.7758 27.5758 12.4242C27.2242 12.0725 26.7473 11.875 26.25 11.875H23.75C22.2582 11.875 20.8274 12.4676 19.7725 13.5225C18.7176 14.5774 18.125 16.0082 18.125 17.5V20.625H15C14.5027 20.625 14.0258 20.8225 13.6742 21.1742C13.3226 21.5258 13.125 22.0027 13.125 22.5C13.125 22.9973 13.3226 23.4742 13.6742 23.8258C14.0258 24.1775 14.5027 24.375 15 24.375H18.125V32.9891C14.8408 32.515 11.858 30.8146 9.77695 28.23C7.69591 25.6454 6.67108 22.3685 6.90871 19.0588C7.14633 15.749 8.62879 12.6521 11.0577 10.3913C13.4866 8.13055 16.6817 6.87368 20 6.87368C23.3183 6.87368 26.5134 8.13055 28.9423 10.3913C31.3712 12.6521 32.8537 15.749 33.0913 19.0588C33.3289 22.3685 32.3041 25.6454 30.2231 28.23C28.142 30.8146 25.1592 32.515 21.875 32.9891Z" fill="#6C757D"/>
</svg>
