<svg width="40" height="40" viewBox="0 0 40 40" fill="none" xmlns="http://www.w3.org/2000/svg">
<path d="M20 12.5C18.5166 12.5 17.0666 12.9399 15.8332 13.764C14.5999 14.5881 13.6386 15.7594 13.0709 17.1299C12.5032 18.5003 12.3547 20.0083 12.6441 21.4632C12.9335 22.918 13.6478 24.2544 14.6967 25.3033C15.7456 26.3522 17.082 27.0665 18.5368 27.3559C19.9917 27.6453 21.4997 27.4968 22.8701 26.9291C24.2406 26.3614 25.4119 25.4001 26.236 24.1668C27.0601 22.9334 27.5 21.4834 27.5 20C27.4979 18.0115 26.7071 16.1051 25.301 14.699C23.8949 13.2929 21.9885 12.5021 20 12.5ZM20 23.75C19.2583 23.75 18.5333 23.5301 17.9166 23.118C17.2999 22.706 16.8193 22.1203 16.5355 21.4351C16.2516 20.7498 16.1774 19.9958 16.3221 19.2684C16.4667 18.541 16.8239 17.8728 17.3483 17.3483C17.8728 16.8239 18.541 16.4667 19.2684 16.3221C19.9958 16.1774 20.7498 16.2516 21.4351 16.5355C22.1203 16.8193 22.706 17.2999 23.118 17.9166C23.5301 18.5333 23.75 19.2583 23.75 20C23.75 20.9946 23.3549 21.9484 22.6517 22.6517C21.9484 23.3549 20.9946 23.75 20 23.75ZM27.5 3.125H12.5C10.0145 3.12789 7.6316 4.11654 5.87407 5.87407C4.11654 7.6316 3.12789 10.0145 3.125 12.5V27.5C3.12789 29.9855 4.11654 32.3684 5.87407 34.1259C7.6316 35.8835 10.0145 36.8721 12.5 36.875H27.5C29.9855 36.8721 32.3684 35.8835 34.1259 34.1259C35.8835 32.3684 36.8721 29.9855 36.875 27.5V12.5C36.8721 10.0145 35.8835 7.6316 34.1259 5.87407C32.3684 4.11654 29.9855 3.12789 27.5 3.125ZM33.125 27.5C33.125 28.9918 32.5324 30.4226 31.4775 31.4775C30.4226 32.5324 28.9918 33.125 27.5 33.125H12.5C11.0082 33.125 9.57742 32.5324 8.52252 31.4775C7.46763 30.4226 6.875 28.9918 6.875 27.5V12.5C6.875 11.0082 7.46763 9.57742 8.52252 8.52252C9.57742 7.46763 11.0082 6.875 12.5 6.875H27.5C28.9918 6.875 30.4226 7.46763 31.4775 8.52252C32.5324 9.57742 33.125 11.0082 33.125 12.5V27.5ZM30.625 11.875C30.625 12.3695 30.4784 12.8528 30.2037 13.2639C29.929 13.675 29.5385 13.9955 29.0817 14.1847C28.6249 14.3739 28.1222 14.4234 27.6373 14.327C27.1523 14.2305 26.7069 13.9924 26.3572 13.6428C26.0076 13.2931 25.7695 12.8477 25.673 12.3627C25.5766 11.8778 25.6261 11.3751 25.8153 10.9183C26.0045 10.4615 26.325 10.071 26.7361 9.79633C27.1472 9.52162 27.6305 9.375 28.125 9.375C28.788 9.375 29.4239 9.63839 29.8928 10.1072C30.3616 10.5761 30.625 11.212 30.625 11.875Z" fill="#6C757D"/>
</svg>
