<svg width="40" height="40" viewBox="0 0 40 40" fill="none" xmlns="http://www.w3.org/2000/svg">
<path d="M33.75 3.125H6.25C5.4212 3.125 4.62634 3.45424 4.04029 4.04029C3.45424 4.62634 3.125 5.4212 3.125 6.25V33.75C3.125 34.5788 3.45424 35.3737 4.04029 35.9597C4.62634 36.5458 5.4212 36.875 6.25 36.875H33.75C34.5788 36.875 35.3737 36.5458 35.9597 35.9597C36.5458 35.3737 36.875 34.5788 36.875 33.75V6.25C36.875 5.4212 36.5458 4.62634 35.9597 4.04029C35.3737 3.45424 34.5788 3.125 33.75 3.125ZM33.125 33.125H6.875V6.875H33.125V33.125ZM17.5 27.5V19.375C17.5004 18.9853 17.6221 18.6055 17.8483 18.2882C18.0746 17.9709 18.394 17.732 18.7623 17.6047C19.1305 17.4774 19.5293 17.4679 19.9032 17.5777C20.2771 17.6875 20.6075 17.911 20.8484 18.2172C21.8008 17.718 22.8658 17.473 23.9406 17.5057C25.0153 17.5385 26.0634 17.848 26.9836 18.4043C27.9037 18.9606 28.6648 19.7449 29.1932 20.6814C29.7216 21.6178 29.9995 22.6748 30 23.75V27.5C30 27.9973 29.8025 28.4742 29.4508 28.8258C29.0992 29.1775 28.6223 29.375 28.125 29.375C27.6277 29.375 27.1508 29.1775 26.7992 28.8258C26.4475 28.4742 26.25 27.9973 26.25 27.5V23.75C26.25 23.087 25.9866 22.4511 25.5178 21.9822C25.0489 21.5134 24.413 21.25 23.75 21.25C23.087 21.25 22.4511 21.5134 21.9822 21.9822C21.5134 22.4511 21.25 23.087 21.25 23.75V27.5C21.25 27.9973 21.0525 28.4742 20.7008 28.8258C20.3492 29.1775 19.8723 29.375 19.375 29.375C18.8777 29.375 18.4008 29.1775 18.0492 28.8258C17.6975 28.4742 17.5 27.9973 17.5 27.5ZM15 19.375V27.5C15 27.9973 14.8025 28.4742 14.4508 28.8258C14.0992 29.1775 13.6223 29.375 13.125 29.375C12.6277 29.375 12.1508 29.1775 11.7992 28.8258C11.4475 28.4742 11.25 27.9973 11.25 27.5V19.375C11.25 18.8777 11.4475 18.4008 11.7992 18.0492C12.1508 17.6975 12.6277 17.5 13.125 17.5C13.6223 17.5 14.0992 17.6975 14.4508 18.0492C14.8025 18.4008 15 18.8777 15 19.375ZM10.625 12.5C10.625 12.0055 10.7716 11.5222 11.0463 11.1111C11.321 10.7 11.7115 10.3795 12.1683 10.1903C12.6251 10.0011 13.1278 9.95157 13.6127 10.048C14.0977 10.1445 14.5431 10.3826 14.8928 10.7322C15.2424 11.0819 15.4805 11.5273 15.577 12.0123C15.6734 12.4972 15.6239 12.9999 15.4347 13.4567C15.2455 13.9135 14.925 14.304 14.5139 14.5787C14.1028 14.8534 13.6195 15 13.125 15C12.462 15 11.8261 14.7366 11.3572 14.2678C10.8884 13.7989 10.625 13.163 10.625 12.5Z" fill="#6C757D"/>
</svg>
