<svg width="16" height="17" viewBox="0 0 16 17" fill="none" xmlns="http://www.w3.org/2000/svg">
<path d="M7.9987 1.83325C7.12322 1.83325 6.25631 2.00569 5.44747 2.34072C4.63864 2.67575 3.90371 3.16682 3.28465 3.78587C2.03441 5.03612 1.33203 6.73181 1.33203 8.49992C1.33203 10.268 2.03441 11.9637 3.28465 13.214C3.90371 13.833 4.63864 14.3241 5.44747 14.6591C6.25631 14.9941 7.12322 15.1666 7.9987 15.1666C9.76681 15.1666 11.4625 14.4642 12.7127 13.214C13.963 11.9637 14.6654 10.268 14.6654 8.49992C14.6654 7.62444 14.4929 6.75753 14.1579 5.9487C13.8229 5.13986 13.3318 4.40493 12.7127 3.78587C12.0937 3.16682 11.3588 2.67575 10.5499 2.34072C9.74108 2.00569 8.87418 1.83325 7.9987 1.83325ZM10.7987 11.2999L7.33203 9.16659V5.16659H8.33203V8.63325L11.332 10.4333L10.7987 11.2999Z" fill="#D26312"/>
</svg>
